<?xml version="1.0" encoding="UTF-8"?>
<!DOCTYPE svg PUBLIC "-//W3C//DTD SVG 1.1//EN" "http://www.w3.org/Graphics/SVG/1.1/DTD/svg11.dtd">
<!-- Creator: CorelDRAW (Evaluation Version) -->
<svg xmlns="http://www.w3.org/2000/svg" xml:space="preserve" width="205.18mm" height="41.4776mm" version="1.1" style="shape-rendering:geometricPrecision; text-rendering:geometricPrecision; image-rendering:optimizeQuality; fill-rule:evenodd; clip-rule:evenodd"
viewBox="0 0 19652 3972.7"
 xmlns:xlink="http://www.w3.org/1999/xlink"
 xmlns:xodm="http://www.corel.com/coreldraw/odm/2003">
 <defs>
  <style type="text/css">
   <![CDATA[
    .fil1 {fill:#03B112}
    .fil2 {fill:white}
    .fil0 {fill:white;fill-rule:nonzero}
   ]]>
  </style>
 </defs>
 <g id="Layer_x0020_1">
  <metadata id="CorelCorpID_0Corel-Layer"/>
  <g id="_2141244610048">
   <path class="fil0" d="M6728.13 2404.57c-10.85,91.12 -33.63,180.62 -68.35,268.5 -34.71,87.88 -85.7,166.52 -152.96,235.95 -86.8,88.96 -187.68,156.76 -302.68,203.42 -114.99,46.64 -234.32,69.97 -357.99,69.97 -123.68,0 -241.38,-20.61 -353.13,-61.84 -111.74,-41.22 -212.08,-106.32 -301.04,-195.28 -62.92,-62.92 -113.36,-129.09 -151.33,-198.52 -37.98,-69.43 -66.72,-143.2 -86.25,-221.32 -19.53,-78.11 -32.55,-160.01 -39.06,-245.71 -6.5,-85.7 -9.76,-176.29 -9.76,-271.76 0,-93.3 3.26,-183.34 9.76,-270.14 6.51,-86.79 19.53,-169.23 39.06,-247.34 19.53,-78.12 48.27,-151.89 86.25,-221.32 37.97,-69.43 88.41,-135.6 151.33,-198.52 88.96,-88.96 189.31,-154.6 301.04,-196.9 111.75,-42.31 229.45,-63.46 353.13,-63.46 123.67,0 243,22.24 357.99,66.72 115,44.48 215.89,111.19 302.68,200.15 67.26,69.43 118.25,147.54 152.96,234.33 34.72,86.79 57.5,175.75 68.35,266.87l-429.61 0c-4.34,-49.9 -15.18,-93.84 -32.55,-131.81 -17.36,-37.97 -41.22,-75.4 -71.6,-112.28 -36.88,-47.73 -86.25,-83.53 -148.08,-107.4 -61.84,-23.87 -128.56,-35.8 -200.15,-35.8 -67.27,0 -131.81,13.02 -193.65,39.06 -61.84,26.03 -115.54,64 -161.1,113.91 -39.06,41.22 -69.43,88.96 -91.13,143.2 -21.69,54.24 -37.42,111.2 -47.19,170.86 -9.76,59.67 -15.73,119.88 -17.9,180.63 -2.16,60.75 -3.26,117.17 -3.26,169.24 0,52.07 1.09,108.48 3.26,169.23 2.17,60.75 8.14,120.96 17.9,180.63 9.77,59.66 25.5,116.62 47.19,170.86 21.7,54.24 52.08,101.98 91.13,143.2 45.56,49.91 99.26,87.88 161.1,113.91 61.84,26.04 126.38,39.06 193.65,39.06 71.6,0 138.32,-12.48 200.15,-37.43 61.84,-24.95 111.2,-61.29 148.08,-109.03 60.75,-73.77 95.46,-158.39 104.14,-253.85l429.61 0zm976.37 732.27c-41.22,8.68 -71.06,14.64 -89.5,17.9 -18.45,3.26 -48.28,4.88 -89.51,4.88 -138.86,0 -250.6,-35.8 -335.22,-107.41 -84.62,-71.6 -126.93,-187.68 -126.93,-348.23l0 -1916.94 410.07 0 0 1848.59c0,49.91 9.77,89.51 29.3,118.8 19.52,29.29 64,43.93 133.43,43.93 17.36,0 30.38,-0.54 39.06,-1.63 8.68,-1.08 18.44,-1.63 29.29,-1.63l0 341.73zm1767.23 -829.91c-2.16,15.18 -3.25,29.29 -3.25,42.31l0 71.6 -1132.59 0c0,65.09 10.31,126.93 30.92,185.51 20.61,58.58 51.53,107.4 92.75,146.46 30.38,28.21 65.64,52.61 105.78,73.22 40.13,20.62 88.41,30.93 144.83,30.93 58.58,0 106.85,-5.97 144.83,-17.9 37.97,-11.93 72.14,-33.09 102.51,-63.46 39.06,-39.06 66.18,-86.8 81.36,-143.2l390.55 0c-4.34,49.9 -21.16,104.69 -50.45,164.35 -29.29,59.67 -60.21,109.04 -92.75,148.08 -71.6,84.62 -157.31,145.37 -257.11,182.26 -99.81,36.88 -203.95,55.32 -312.44,55.32 -117.17,0 -218.6,-18.98 -304.3,-56.95 -85.7,-37.97 -162.18,-88.41 -229.45,-151.34 -84.61,-82.45 -149.17,-181.17 -193.65,-296.16 -44.48,-115 -66.71,-241.93 -66.71,-380.79 0,-136.69 20.07,-263.08 60.21,-379.15 40.14,-116.08 101.43,-215.34 183.88,-297.8 62.93,-65.09 139.41,-117.16 229.45,-156.22 90.04,-39.06 193.65,-58.58 310.81,-58.58 125.84,0 243,25.49 351.49,76.48 108.49,50.98 197.44,129.64 266.87,235.95 62.93,93.3 103.07,188.23 120.42,284.78 17.36,96.55 26.03,197.99 26.03,304.3zm-406.81 -182.26c-2.17,-123.67 -36.88,-222.4 -104.15,-296.17 -28.21,-30.37 -63.46,-54.24 -105.77,-71.6 -42.32,-17.36 -92.76,-26.04 -151.34,-26.04 -62.92,0 -118.25,11.93 -165.99,35.8 -47.73,23.87 -86.79,55.33 -117.16,94.38 -30.38,36.88 -52.08,75.94 -65.09,117.17 -13.03,41.22 -20.61,90.04 -22.79,146.46l732.28 0zm2261.92 995.9c-34.72,15.19 -64.56,26.58 -89.51,34.17 -24.95,7.6 -62.38,11.39 -112.28,11.39 -88.96,0 -157.3,-23.86 -205.04,-71.6 -47.74,-47.74 -74.85,-103.06 -81.36,-165.99 -39.06,69.43 -104.15,129.1 -195.28,179 -91.12,49.9 -197.44,74.85 -318.95,74.85 -101.98,0 -190.94,-14.64 -266.87,-43.93 -75.94,-29.29 -139.41,-68.35 -190.4,-117.17 -50.98,-48.82 -89.5,-105.22 -115.53,-169.23 -26.04,-64.01 -39.06,-130.73 -39.06,-200.16 0,-80.27 14.64,-151.88 43.93,-214.79 29.29,-62.93 69.98,-117.17 122.05,-162.73 52.07,-45.56 112.82,-80.83 182.25,-105.78 69.43,-24.95 144.29,-40.68 224.56,-47.19l497.95 -35.8 0 -104.14c0,-80.28 -18.98,-144.83 -56.95,-193.65 -37.97,-48.82 -114.46,-73.23 -229.45,-73.23 -95.46,0 -169.78,20.62 -222.94,61.84 -53.16,41.22 -81.9,100.88 -86.25,179l-393.8 0c6.5,-95.47 28.74,-177.92 66.72,-247.35 37.97,-69.43 88.41,-126.39 151.33,-170.87 62.93,-44.47 135.61,-77.56 218.06,-99.26 82.45,-21.7 171.41,-32.55 266.87,-32.55 145.37,0 275.01,25.49 388.92,76.48 113.91,50.98 195.82,140.49 245.72,268.5 21.69,54.25 35.26,110.65 40.68,169.24 5.43,58.58 8.14,116.08 8.14,172.49l0 628.13c0,39.06 7.05,66.72 21.16,82.99 14.1,16.27 38.5,24.4 73.22,24.4 17.36,0 29.29,-1.08 35.8,-3.25 6.5,0 11.93,-1.09 16.27,-3.26l0 299.42zm-543.52 -732.27l-429.6 32.55c-62.92,4.34 -119.33,24.95 -169.23,61.84 -49.91,36.88 -74.86,90.04 -74.86,159.47 0,65.09 24.41,116.62 73.23,154.59 48.82,37.98 104.69,56.96 167.6,56.96 128.02,0 232.16,-33.09 312.44,-99.27 80.28,-66.17 120.41,-162.18 120.41,-288.03l0 -78.11zm1884.39 -563.04c-49.9,-10.85 -96.56,-16.27 -139.94,-16.27 -143.2,0 -251.69,45.56 -325.46,136.69 -73.77,91.12 -110.65,205.04 -110.65,341.73l0 852.7 -410.08 0 0 -1692.38 344.99 0 35.8 253.85c39.05,-97.64 103.6,-168.15 193.65,-211.55 90.04,-43.39 184.96,-65.09 284.77,-65.09 41.22,0 83.53,3.26 126.93,9.77l0 390.55zm1978.77 579.31c-4.34,108.48 -26.58,207.2 -66.72,296.16 -40.14,88.96 -93.84,168.16 -161.1,237.59 -69.43,69.43 -158.39,128.01 -266.87,175.75 -108.49,47.73 -225.66,71.6 -351.49,71.6 -117.17,0 -230,-20.61 -338.48,-61.84 -108.49,-41.22 -203.95,-103.06 -286.41,-185.51 -62.92,-60.75 -113.36,-127.47 -151.33,-200.16 -37.98,-72.69 -67.27,-149.17 -87.88,-229.45 -20.61,-80.27 -34.17,-164.36 -40.68,-252.23 -6.51,-87.88 -9.77,-177.37 -9.77,-268.5 0,-91.13 3.26,-180.63 9.77,-268.51 6.5,-87.87 20.07,-171.94 40.68,-252.23 20.61,-80.28 49.9,-156.76 87.88,-229.45 37.97,-72.69 88.41,-139.41 151.33,-200.16 82.46,-82.45 177.92,-144.28 286.41,-185.51 108.48,-41.22 221.31,-61.84 338.48,-61.84 125.84,0 242.46,22.24 349.86,66.72 107.4,44.48 195.81,101.43 265.24,170.86 67.27,69.43 120.97,147.54 161.1,234.33 40.14,86.79 62.38,184.42 66.72,292.9l-299.42 0c-2.17,-62.92 -14.64,-121.5 -37.43,-175.75 -22.78,-54.24 -52.61,-103.06 -89.5,-146.46 -45.57,-49.9 -104.15,-90.58 -175.75,-122.04 -71.6,-31.46 -151.89,-47.19 -240.84,-47.19 -78.12,0 -153.52,15.19 -226.19,45.56 -72.69,30.38 -137.24,73.77 -193.65,130.18 -47.74,49.9 -84.62,105.23 -110.66,165.99 -26.03,60.75 -45.56,124.22 -58.58,190.39 -13.02,66.17 -20.61,132.89 -22.78,200.15 -2.17,67.27 -3.26,131.28 -3.26,192.03 0,60.74 1.08,124.75 3.26,192.02 2.16,67.26 9.76,133.98 22.78,200.15 13.02,66.17 32.55,130.18 58.58,192.02 26.04,61.84 62.93,116.62 110.66,164.36 56.4,56.41 120.96,99.81 193.65,130.18 72.68,30.37 148.08,45.56 226.19,45.56 88.95,0 169.78,-16.81 242.46,-50.45 72.69,-33.63 131.81,-75.4 177.37,-125.3 36.89,-43.4 66.72,-93.84 89.51,-151.34 22.78,-57.5 35.26,-117.7 37.43,-180.62l299.42 0zm1487.34 -87.88c0,-97.64 -10.85,-192.02 -32.55,-283.14 -21.7,-91.13 -61.84,-167.07 -120.42,-227.82 -34.71,-34.72 -76.48,-62.93 -125.3,-84.62 -48.82,-21.69 -105.77,-32.55 -170.86,-32.55 -65.09,0 -122.05,10.85 -170.87,32.55 -48.82,21.69 -90.58,49.9 -125.3,84.62 -58.58,60.75 -98.72,136.69 -120.42,227.82 -21.69,91.12 -32.54,185.51 -32.54,283.14 0,97.64 10.84,192.02 32.54,283.15 21.7,91.12 61.84,167.06 120.42,227.81 34.72,34.72 76.48,62.93 125.3,84.62 48.82,21.69 105.78,32.55 170.87,32.55 65.09,0 122.04,-10.85 170.86,-32.55 48.82,-21.69 90.59,-49.9 125.3,-84.62 58.59,-60.75 98.72,-136.69 120.42,-227.81 21.69,-91.13 32.55,-185.52 32.55,-283.15zm283.14 0c0,130.18 -16.27,252.77 -48.82,367.76 -32.55,114.99 -94.38,216.97 -185.51,305.93 -60.75,58.59 -132.89,105.23 -216.43,139.95 -83.53,34.71 -177.37,52.07 -281.51,52.07 -104.15,0 -197.99,-17.36 -281.52,-52.07 -83.53,-34.72 -155.68,-81.36 -216.42,-139.95 -91.13,-88.96 -152.97,-190.94 -185.52,-305.93 -32.55,-114.99 -48.82,-237.58 -48.82,-367.76 0,-130.18 16.27,-252.77 48.82,-367.76 32.55,-114.99 94.38,-216.97 185.52,-305.93 60.74,-58.58 132.89,-105.23 216.42,-139.94 83.54,-34.72 177.37,-52.08 281.52,-52.08 104.14,0 197.99,17.36 281.51,52.08 83.54,34.71 155.68,81.36 216.43,139.94 91.12,88.96 152.96,190.94 185.51,305.93 32.55,114.99 48.82,237.58 48.82,367.76zm1532.9 823.41l0 -1044.71c0,-123.67 -27.67,-220.23 -82.99,-289.66 -55.33,-69.43 -148.08,-104.15 -278.27,-104.15 -80.27,0 -150.8,23.33 -211.55,69.98 -60.75,46.64 -109.57,107.94 -146.46,183.89 -28.21,60.74 -45.02,130.17 -50.44,208.29 -5.43,78.11 -8.14,148.62 -8.14,211.54l0 764.83 -276.64 0 0 -1646.81 240.84 0 22.79 247.35c21.69,-47.74 50.98,-89.51 87.87,-125.3 36.88,-35.8 78.12,-65.64 123.68,-89.51 45.56,-23.87 93.3,-42.31 143.2,-55.32 49.9,-13.03 97.64,-19.53 143.2,-19.53 188.76,0 330.88,53.16 426.34,159.47 95.47,106.32 143.21,254.94 143.21,445.87l0 1083.77 -276.64 0zm1702.13 -22.24c-36.88,10.85 -81.9,21.16 -135.06,30.37 -53.16,9.77 -117.71,14.65 -193.65,14.65 -88.96,0 -162.73,-13.03 -221.32,-39.06 -58.58,-26.03 -104.69,-59.67 -138.32,-100.89 -33.63,-41.22 -57.5,-88.41 -71.6,-141.57 -14.1,-53.16 -21.15,-107.94 -21.15,-164.36l0 -986.14 -318.95 0 0 -237.58 318.95 0 0 -419.84 276.64 -65.09 0 484.93 488.18 0 0 237.58 -488.18 0 0 956.3c0,80.28 17.89,138.32 53.69,173.04 35.8,34.72 91.67,52.08 167.61,52.08 30.37,0 61.84,-1.08 94.38,-3.26 32.55,-2.16 62.92,-5.42 91.12,-9.76 32.55,-4.34 65.09,-9.76 97.64,-16.27l0 234.87z"/>
  </g>
  <g id="_2141244608896">
   <path class="fil1" d="M2102.92 3144.26c0,0 -57.2,107.19 -237.3,237.78 -357.16,258.99 -707.01,410.47 -1242.36,475.09 -201.74,24.34 -511.15,-159.7 -623.26,-242.47 259.34,9.89 1166.56,182.66 2102.92,-470.4z"/>
   <path class="fil1" d="M653.93 3917.07c1050.68,-101.42 1980.14,-1023.52 2291.65,-1971 -186.69,73.67 -452.97,158.72 -702.2,256.71 221.28,-246.57 298.46,-318.56 658.57,-734.02 450.99,-520.28 969.58,-1072.89 969.58,-1072.89l715.91 2315.43 -618.68 -595.93c-552.81,1411.85 -1903.11,2060 -3314.83,1801.71z"/>
   <path class="fil2" d="M2624.59 1020.73l475.1 -513.86c2.11,-2.27 -1044.45,-1052.34 -2357.03,-123.08 -656.12,464.51 -966.35,1404.56 -469.27,2346.56 216.34,409.97 607.25,632.35 623.23,623.53l709.21 -391.19c7.18,-3.96 -965.64,-199.43 -892.77,-1258.03 64.26,-933.56 1282.91,-1350.07 1911.53,-683.93z"/>
  </g>
 </g>
</svg>
