<?xml version="1.0" encoding="UTF-8"?>
<!DOCTYPE svg PUBLIC "-//W3C//DTD SVG 1.1//EN" "http://www.w3.org/Graphics/SVG/1.1/DTD/svg11.dtd">
<!-- Creator: CorelDRAW (Evaluation Version) -->
<svg xmlns="http://www.w3.org/2000/svg" xml:space="preserve" width="47.8959mm" height="41.4776mm" version="1.1" style="shape-rendering:geometricPrecision; text-rendering:geometricPrecision; image-rendering:optimizeQuality; fill-rule:evenodd; clip-rule:evenodd"
viewBox="0 0 1910.42 1654.41"
 xmlns:xlink="http://www.w3.org/1999/xlink"
 xmlns:xodm="http://www.corel.com/coreldraw/odm/2003">
 <defs>
  <style type="text/css">
   <![CDATA[
    .fil1 {fill:black}
    .fil0 {fill:#03B112}
   ]]>
  </style>
 </defs>
 <g id="Layer_x0020_1">
  <metadata id="CorelCorpID_0Corel-Layer"/>
  <g id="_2141243631008">
   <path class="fil0" d="M875.75 1309.41c0,0 -23.82,44.64 -98.82,99.02 -148.74,107.85 -294.43,170.94 -517.38,197.85 -84.01,10.14 -212.86,-66.51 -259.55,-100.97 108,4.12 485.81,76.07 875.75,-195.9z"/>
   <path class="fil0" d="M272.33 1631.25c437.55,-42.24 824.62,-426.24 954.35,-820.81 -77.75,30.68 -188.64,66.1 -292.43,106.9 92.15,-102.68 124.29,-132.66 274.26,-305.68 187.81,-216.67 403.78,-446.8 403.78,-446.8l298.14 964.25 -257.65 -248.17c-230.22,587.96 -792.54,857.88 -1380.45,750.31z"/>
   <path class="fil1" d="M1093 425.08l197.86 -213.99c0.88,-0.95 -434.95,-438.24 -981.57,-51.25 -273.24,193.44 -402.43,584.92 -195.43,977.21 90.09,170.73 252.89,263.34 259.54,259.67l295.35 -162.91c2.99,-1.65 -402.14,-83.05 -371.79,-523.9 26.76,-388.78 534.26,-562.23 796.05,-284.82z"/>
  </g>
 </g>
</svg>
