<?xml version="1.0" encoding="UTF-8"?>
<!DOCTYPE svg PUBLIC "-//W3C//DTD SVG 1.1//EN" "http://www.w3.org/Graphics/SVG/1.1/DTD/svg11.dtd">
<!-- Creator: CorelDRAW (Evaluation Version) -->
<svg xmlns="http://www.w3.org/2000/svg" xml:space="preserve" width="204.664mm" height="41.4776mm" version="1.1" style="shape-rendering:geometricPrecision; text-rendering:geometricPrecision; image-rendering:optimizeQuality; fill-rule:evenodd; clip-rule:evenodd"
viewBox="0 0 19647.94 3981.88"
 xmlns:xlink="http://www.w3.org/1999/xlink"
 xmlns:xodm="http://www.corel.com/coreldraw/odm/2003">
 <defs>
  <style type="text/css">
   <![CDATA[
    .fil2 {fill:black}
    .fil1 {fill:#03B112}
    .fil0 {fill:black;fill-rule:nonzero}
   ]]>
  </style>
 </defs>
 <g id="Layer_x0020_1">
  <metadata id="CorelCorpID_0Corel-Layer"/>
  <g id="_2141246111616">
   <path class="fil0" d="M6694.21 2430.79c-10.88,91.34 -33.71,181.04 -68.51,269.12 -34.79,88.08 -85.9,166.91 -153.31,236.5 -87,89.17 -188.11,157.12 -303.38,203.89 -115.26,46.75 -234.87,70.13 -358.82,70.13 -123.97,0 -241.94,-20.66 -353.95,-61.98 -111.99,-41.32 -212.57,-106.56 -301.74,-195.73 -63.06,-63.06 -113.63,-129.39 -151.68,-198.98 -38.06,-69.59 -66.87,-143.53 -86.45,-221.83 -19.57,-78.29 -32.62,-160.38 -39.15,-246.28 -6.52,-85.9 -9.78,-176.7 -9.78,-272.38 0,-93.51 3.26,-183.76 9.78,-270.76 6.53,-86.99 19.57,-169.62 39.15,-247.91 19.57,-78.3 48.38,-152.24 86.45,-221.83 38.05,-69.59 88.62,-135.92 151.68,-198.98 89.17,-89.17 189.75,-154.95 301.74,-197.36 112,-42.4 229.98,-63.61 353.95,-63.61 123.96,0 243.56,22.29 358.82,66.87 115.27,44.58 216.39,111.45 303.38,200.61 67.41,69.59 118.52,147.88 153.31,234.88 34.8,86.99 57.63,176.15 68.51,267.49l-430.6 0c-4.35,-50.02 -15.22,-94.05 -32.62,-132.12 -17.4,-38.05 -41.32,-75.57 -71.76,-112.54 -36.97,-47.84 -86.45,-83.72 -148.43,-107.65 -61.98,-23.92 -128.85,-35.89 -200.61,-35.89 -67.42,0 -132.12,13.05 -194.09,39.15 -61.99,26.09 -115.81,64.15 -161.47,114.17 -39.15,41.32 -69.59,89.17 -91.34,143.53 -21.74,54.37 -37.51,111.46 -47.3,171.26 -9.78,59.81 -15.76,120.15 -17.94,181.05 -2.17,60.89 -3.26,117.44 -3.26,169.63 0,52.19 1.09,108.73 3.26,169.62 2.18,60.89 8.16,121.24 17.94,181.05 9.79,59.8 25.56,116.89 47.3,171.26 21.75,54.37 52.2,102.21 91.34,143.53 45.67,50.03 99.49,88.08 161.47,114.17 61.98,26.1 126.67,39.15 194.09,39.15 71.76,0 138.63,-12.51 200.61,-37.52 61.98,-25.01 111.46,-61.43 148.43,-109.28 60.89,-73.94 95.68,-158.76 104.38,-254.44l430.6 0z"/>
   <path id="_1" class="fil0" d="M7672.83 3164.75c-41.32,8.7 -71.22,14.68 -89.7,17.94 -18.49,3.26 -48.39,4.9 -89.71,4.9 -139.18,0 -251.18,-35.89 -335.99,-107.66 -84.82,-71.76 -127.22,-188.11 -127.22,-349.04l0 -1921.37 411.02 0 0 1852.86c0,50.03 9.79,89.71 29.37,119.07 19.56,29.36 64.15,44.04 133.74,44.04 17.4,0 30.45,-0.54 39.15,-1.63 8.7,-1.08 18.48,-1.63 29.36,-1.63l0 342.52z"/>
   <path id="_2" class="fil0" d="M9444.14 2332.92c-2.17,15.22 -3.25,29.36 -3.25,42.4l0 71.77 -1135.21 0c0,65.24 10.33,127.22 30.99,185.93 20.66,58.71 51.65,107.65 92.97,146.79 30.45,28.27 65.79,52.73 106.02,73.39 40.22,20.67 88.62,31 145.16,31 58.71,0 107.1,-5.98 145.16,-17.94 38.05,-11.96 72.31,-33.17 102.75,-63.61 39.15,-39.15 66.34,-87 81.55,-143.53l391.45 0c-4.35,50.02 -21.21,104.93 -50.56,164.73 -29.36,59.81 -60.35,109.29 -92.97,148.43 -71.77,84.82 -157.67,145.71 -257.7,182.68 -100.04,36.97 -204.42,55.45 -313.16,55.45 -117.44,0 -219.1,-19.03 -305,-57.08 -85.9,-38.05 -162.56,-88.62 -229.98,-151.69 -84.81,-82.64 -149.51,-181.59 -194.09,-296.84 -44.58,-115.27 -66.86,-242.49 -66.86,-381.67 0,-137 20.11,-263.69 60.35,-380.03 40.23,-116.35 101.66,-215.84 184.3,-298.49 63.07,-65.24 139.73,-117.43 229.98,-156.58 90.25,-39.15 194.09,-58.71 311.53,-58.71 126.14,0 243.56,25.55 352.3,76.66 108.74,51.1 197.9,129.94 267.49,236.5 63.07,93.51 103.31,188.66 120.7,285.44 17.4,96.77 26.09,198.44 26.09,305zm-407.75 -182.68c-2.18,-123.96 -36.97,-222.91 -104.39,-296.85 -28.27,-30.44 -63.61,-54.37 -106.01,-71.76 -42.41,-17.4 -92.98,-26.1 -151.69,-26.1 -63.06,0 -118.52,11.96 -166.37,35.89 -47.84,23.92 -86.99,55.46 -117.43,94.6 -30.45,36.97 -52.2,76.12 -65.24,117.44 -13.06,41.32 -20.66,90.25 -22.84,146.79l733.97 0z"/>
   <path id="_3" class="fil0" d="M11303.53 3148.44c-34.8,15.23 -64.7,26.64 -89.71,34.25 -25.01,7.61 -62.53,11.41 -112.54,11.41 -89.17,0 -157.66,-23.91 -205.51,-71.76 -47.85,-47.85 -75.02,-103.3 -81.55,-166.37 -39.15,69.59 -104.39,129.4 -195.73,179.42 -91.34,50.02 -197.9,75.02 -319.68,75.02 -102.21,0 -191.38,-14.68 -267.49,-44.04 -76.12,-29.36 -139.73,-68.51 -190.84,-117.44 -51.1,-48.93 -89.7,-105.47 -115.8,-169.62 -26.1,-64.16 -39.15,-131.03 -39.15,-200.62 0,-80.46 14.68,-152.23 44.04,-215.29 29.36,-63.07 70.14,-117.44 122.33,-163.11 52.19,-45.67 113.08,-81.02 182.67,-106.02 69.59,-25.01 144.63,-40.77 225.08,-47.3l499.1 -35.89 0 -104.38c0,-80.47 -19.03,-145.16 -57.08,-194.09 -38.05,-48.93 -114.72,-73.4 -229.98,-73.4 -95.68,0 -170.17,20.67 -223.45,61.99 -53.28,41.32 -82.09,101.12 -86.45,179.42l-394.71 0c6.52,-95.69 28.81,-178.33 66.87,-247.92 38.05,-69.59 88.62,-126.68 151.68,-171.27 63.07,-44.57 135.93,-77.74 218.56,-99.49 82.64,-21.75 171.8,-32.62 267.49,-32.62 145.71,0 275.65,25.55 389.82,76.66 114.17,51.1 196.27,140.81 246.29,269.12 21.74,54.37 35.34,110.91 40.77,169.63 5.44,58.71 8.16,116.34 8.16,172.89l0 629.58c0,39.15 7.07,66.87 21.21,83.18 14.13,16.31 38.59,24.46 73.39,24.46 17.4,0 29.36,-1.08 35.89,-3.25 6.52,0 11.96,-1.09 16.31,-3.26l0 300.11zm-544.78 -733.96l-430.59 32.62c-63.06,4.35 -119.61,25.01 -169.62,61.98 -50.03,36.97 -75.03,90.25 -75.03,159.84 0,65.24 24.47,116.89 73.4,154.95 48.93,38.06 104.93,57.09 167.99,57.09 128.31,0 232.7,-33.17 313.16,-99.5 80.47,-66.33 120.69,-162.56 120.69,-288.69l0 -78.29z"/>
   <path id="_4" class="fil0" d="M12647.5 1850.14c-50.02,-10.88 -96.78,-16.31 -140.27,-16.31 -143.53,0 -252.27,45.67 -326.21,137 -73.94,91.34 -110.91,205.51 -110.91,342.52l0 854.67 -411.03 0 0 -1696.29 345.79 0 35.89 254.44c39.14,-97.86 103.84,-168.54 194.09,-212.04 90.25,-43.49 185.39,-65.24 285.43,-65.24 41.32,0 83.72,3.26 127.22,9.79l0 391.45z"/>
   <path id="_5" class="fil0" d="M14630.85 2430.79c-4.35,108.73 -26.64,207.68 -66.87,296.84 -40.23,89.17 -94.05,168.55 -161.47,238.14 -69.59,69.59 -158.76,128.31 -267.49,176.15 -108.74,47.84 -226.18,71.76 -352.3,71.76 -117.44,0 -230.53,-20.66 -339.26,-61.98 -108.74,-41.32 -204.42,-103.3 -287.07,-185.93 -63.06,-60.89 -113.63,-127.77 -151.68,-200.62 -38.06,-72.85 -67.42,-149.51 -88.08,-229.98 -20.66,-80.46 -34.25,-164.74 -40.77,-252.81 -6.53,-88.08 -9.79,-177.78 -9.79,-269.12 0,-91.34 3.26,-181.05 9.79,-269.13 6.52,-88.07 20.11,-172.34 40.77,-252.81 20.66,-80.47 50.02,-157.12 88.08,-229.98 38.05,-72.85 88.62,-139.73 151.68,-200.62 82.65,-82.64 178.33,-144.62 287.07,-185.93 108.73,-41.32 221.82,-61.98 339.26,-61.98 126.13,0 243.02,22.29 350.67,66.87 107.65,44.58 196.26,101.66 265.85,171.26 67.42,69.59 121.25,147.88 161.47,234.88 40.23,86.99 62.53,184.85 66.87,293.58l-300.11 0c-2.18,-63.06 -14.68,-121.78 -37.52,-176.15 -22.83,-54.37 -52.73,-103.3 -89.7,-146.79 -45.68,-50.02 -104.39,-90.79 -176.15,-122.32 -71.77,-31.54 -152.24,-47.3 -241.39,-47.3 -78.3,0 -153.87,15.23 -226.72,45.67 -72.85,30.45 -137.56,73.94 -194.09,130.48 -47.85,50.02 -84.82,105.48 -110.92,166.37 -26.09,60.89 -45.67,124.5 -58.71,190.83 -13.05,66.33 -20.66,133.2 -22.83,200.61 -2.18,67.42 -3.26,131.58 -3.26,192.47 0,60.88 1.08,125.04 3.26,192.46 2.17,67.41 9.78,134.29 22.83,200.61 13.05,66.33 32.62,130.48 58.71,192.46 26.1,61.98 63.07,116.89 110.92,164.74 56.53,56.54 121.24,100.04 194.09,130.48 72.85,30.44 148.42,45.67 226.72,45.67 89.16,0 170.17,-16.85 243.02,-50.56 72.85,-33.71 132.12,-75.57 177.78,-125.59 36.98,-43.5 66.87,-94.05 89.71,-151.69 22.83,-57.63 35.34,-117.98 37.52,-181.04l300.11 0z"/>
   <path id="_6" class="fil0" d="M16121.63 2342.71c0,-97.86 -10.88,-192.46 -32.62,-283.8 -21.75,-91.34 -61.98,-167.45 -120.7,-228.35 -34.79,-34.8 -76.66,-63.07 -125.59,-84.82 -48.93,-21.74 -106.01,-32.62 -171.26,-32.62 -65.24,0 -122.33,10.88 -171.27,32.62 -48.93,21.74 -90.79,50.02 -125.59,84.82 -58.71,60.89 -98.95,137 -120.7,228.35 -21.74,91.34 -32.61,185.93 -32.61,283.8 0,97.86 10.87,192.46 32.61,283.81 21.75,91.34 61.99,167.44 120.7,228.34 34.8,34.8 76.66,63.07 125.59,84.82 48.93,21.74 106.02,32.62 171.27,32.62 65.24,0 122.32,-10.88 171.26,-32.62 48.93,-21.74 90.8,-50.02 125.59,-84.82 58.72,-60.89 98.95,-137 120.7,-228.34 21.74,-91.34 32.62,-185.94 32.62,-283.81zm283.8 0c0,130.48 -16.31,253.36 -48.93,368.61 -32.62,115.26 -94.6,217.47 -185.93,306.64 -60.89,58.72 -133.2,105.48 -216.93,140.28 -83.72,34.79 -177.78,52.19 -282.17,52.19 -104.39,0 -198.44,-17.4 -282.18,-52.19 -83.72,-34.8 -156.04,-81.55 -216.92,-140.28 -91.34,-89.17 -153.32,-191.38 -185.94,-306.64 -32.62,-115.26 -48.93,-238.13 -48.93,-368.61 0,-130.48 16.31,-253.36 48.93,-368.61 32.62,-115.26 94.6,-217.47 185.94,-306.64 60.88,-58.71 133.2,-105.48 216.92,-140.27 83.73,-34.8 177.78,-52.2 282.18,-52.2 104.38,0 198.44,17.4 282.17,52.2 83.73,34.79 156.04,81.55 216.93,140.27 91.34,89.17 153.31,191.38 185.93,306.64 32.62,115.26 48.93,238.13 48.93,368.61z"/>
   <path id="_7" class="fil0" d="M17941.87 3168.02l0 -1047.13c0,-123.96 -27.73,-220.73 -83.18,-290.33 -55.46,-69.59 -148.43,-104.39 -278.91,-104.39 -80.46,0 -151.14,23.39 -212.04,70.14 -60.89,46.75 -109.82,108.19 -146.79,184.31 -28.27,60.88 -45.12,130.47 -50.55,208.77 -5.44,78.29 -8.16,148.96 -8.16,212.03l0 766.59 -277.28 0 0 -1650.62 241.39 0 22.84 247.92c21.74,-47.85 51.1,-89.71 88.07,-125.59 36.97,-35.89 78.3,-65.79 123.97,-89.71 45.67,-23.92 93.51,-42.4 143.53,-55.45 50.02,-13.06 97.86,-19.57 143.53,-19.57 189.2,0 331.64,53.28 427.33,159.84 95.69,106.56 143.54,255.53 143.54,446.9l0 1086.28 -277.28 0z"/>
   <path id="_8" class="fil0" d="M19647.94 3145.72c-36.97,10.88 -82.09,21.21 -135.37,30.44 -53.28,9.79 -117.98,14.69 -194.09,14.69 -89.17,0 -163.11,-13.06 -221.83,-39.15 -58.71,-26.09 -104.93,-59.81 -138.63,-101.13 -33.71,-41.32 -57.63,-88.62 -71.77,-141.9 -14.13,-53.28 -21.2,-108.19 -21.2,-164.74l0 -988.41 -319.68 0 0 -238.13 319.68 0 0 -420.81 277.28 -65.24 0 486.05 489.31 0 0 238.13 -489.31 0 0 958.51c0,80.47 17.93,138.64 53.82,173.43 35.89,34.8 91.88,52.2 168,52.2 30.44,0 61.98,-1.08 94.6,-3.26 32.62,-2.17 63.06,-5.43 91.34,-9.78 32.62,-4.35 65.24,-9.78 97.86,-16.31l0 235.41z"/>
  </g>
  <g id="_2141246111856">
   <path class="fil1" d="M655.45 3926.12c1053.11,-101.66 1984.72,-1025.88 2296.94,-1975.55 -187.12,73.84 -454.02,159.08 -703.82,257.3 221.79,-247.13 299.15,-319.3 660.09,-735.72 452.03,-521.49 971.82,-1075.37 971.82,-1075.37l717.57 2320.78 -620.11 -597.31c-554.09,1415.11 -1907.51,2064.76 -3322.49,1805.87z"/>
   <g>
    <path class="fil1" d="M2107.78 3151.52c0,0 -57.33,107.43 -237.85,238.33 -357.99,259.59 -708.64,411.42 -1245.24,476.18 -202.21,24.39 -512.33,-160.07 -624.7,-243.03 259.94,9.92 1169.25,183.08 2107.78,-471.49z"/>
    <path class="fil2" d="M2630.65 1023.09l476.2 -515.04c2.11,-2.28 -1046.86,-1054.77 -2362.47,-123.36 -657.63,465.58 -968.58,1407.8 -470.36,2351.98 216.84,410.92 608.65,633.81 624.67,624.97l710.85 -392.1c7.2,-3.96 -967.87,-199.89 -894.83,-1260.94 64.41,-935.72 1285.87,-1353.19 1915.94,-685.51z"/>
   </g>
  </g>
 </g>
</svg>
