<?xml version="1.0" encoding="UTF-8"?>
<!DOCTYPE svg PUBLIC "-//W3C//DTD SVG 1.1//EN" "http://www.w3.org/Graphics/SVG/1.1/DTD/svg11.dtd">
<!-- Creator: CorelDRAW (Evaluation Version) -->
<svg xmlns="http://www.w3.org/2000/svg" xml:space="preserve" width="47.8959mm" height="41.4776mm" version="1.1" style="shape-rendering:geometricPrecision; text-rendering:geometricPrecision; image-rendering:optimizeQuality; fill-rule:evenodd; clip-rule:evenodd"
viewBox="0 0 6272.91 5432.31"
 xmlns:xlink="http://www.w3.org/1999/xlink"
 xmlns:xodm="http://www.corel.com/coreldraw/odm/2003">
 <defs>
  <style type="text/css">
   <![CDATA[
    .fil0 {fill:#03B112}
    .fil1 {fill:white}
   ]]>
  </style>
 </defs>
 <g id="Layer_x0020_1">
  <metadata id="CorelCorpID_0Corel-Layer"/>
  <g id="_2141249082544">
   <path class="fil0" d="M2875.56 4299.49c0,0 -78.22,146.57 -324.49,325.15 -488.39,354.14 -966.77,561.28 -1698.82,649.64 -275.86,33.28 -698.95,-218.38 -852.25,-331.55 354.63,13.53 1595.16,249.77 2875.56,-643.23z"/>
   <path class="fil0" d="M894.2 5356.24c1436.71,-138.68 2707.67,-1399.57 3133.62,-2695.16 -255.29,100.74 -619.4,217.03 -960.19,351.03 302.58,-337.16 408.11,-435.61 900.53,-1003.71 616.68,-711.44 1325.81,-1467.08 1325.81,-1467.08l978.95 3166.14 -845.99 -814.88c-755.92,1930.57 -2602.33,2816.86 -4532.73,2463.67z"/>
   <path class="fil1" d="M3588.89 1395.76l649.66 -702.65c2.88,-3.1 -1428.19,-1438.98 -3223.02,-168.3 -897.18,635.18 -1321.39,1920.61 -641.69,3208.71 295.82,560.6 830.36,864.68 852.21,852.63l969.78 -534.92c9.82,-5.41 -1320.42,-272.71 -1220.78,-1720.25 87.87,-1276.56 1754.26,-1846.1 2613.84,-935.22z"/>
  </g>
 </g>
</svg>
